# xmcd
#
# Track frame offsets:
#   150
#   14847
#   30714
#   47488
#   62956
#   81507
#   98275
#   115776
#   132378
#   147423
#   163217
#   180283
#   198232
#   216310
#
# Disc length: 3118 seconds
#
# Revision: 0
# Processed by: cddbd v1.5.1PL2 Copyright (c) Steve Scherf et al.
# Submitted via: uFREEDB ActiveX Control 1.5
#
DISCID=c70c2c0e
DTITLE=JULIANO CÉSAR - O COWBOY VAGABUNDO - VIDA DE PEÃO
DYEAR=2004
DGENRE=Country
TTITLE0=MADRUGADA TRISTE
TTITLE1=RODO SEM BORRACHA
TTITLE2=CORAÇÃO QUER TE ENCONTRAR
TTITLE3=BR 153
TTITLE4=CASAR PRA QUÊ???
TTITLE5=VIDA DE PEÃO
TTITLE6=COM DESTINO A BARRETOS
TTITLE7=FAZ BEM
TTITLE8=DE BAD BOY A PEÃO
TTITLE9=GANHO A VIDA NO GOGÓ
TTITLE10=DOIS ESTRANHOS
TTITLE11=NEM MESMO ESSA SAUDADE
TTITLE12=SAI DE MIM SAUDADE
TTITLE13=NÃO TEM NADA A VER
EXTD=
EXTT0=
EXTT1=
EXTT2=
EXTT3=
EXTT4=
EXTT5=
EXTT6=
EXTT7=
EXTT8=
EXTT9=
EXTT10=
EXTT11=
EXTT12=
EXTT13=
PLAYORDER=
